<?xml version="1.0" encoding="UTF-8" standalone="no"?>
<!DOCTYPE svg PUBLIC "-//W3C//DTD SVG 1.1//EN"
 "http://www.w3.org/Graphics/SVG/1.1/DTD/svg11.dtd">
<!-- Generated by graphviz version 2.47.0 (20210316.0004)
 -->
<!-- Title: dependencies Pages: 1 -->
<svg width="734pt" height="284pt"
 viewBox="0.00 0.00 734.00 284.00" xmlns="http://www.w3.org/2000/svg" xmlns:xlink="http://www.w3.org/1999/xlink">
<g id="graph0" class="graph" transform="scale(1 1) rotate(0) translate(4 280)">
<title>dependencies</title>
<polygon fill="white" stroke="transparent" points="-4,4 -4,-280 730,-280 730,4 -4,4"/>
<text text-anchor="start" x="342.01" y="-42.4" font-family="Times-12" font-weight="bold" font-size="14.00">Legend</text>
<polygon fill="#ffffb3" stroke="transparent" points="129,-10 129,-30 149,-30 149,-10 129,-10"/>
<text text-anchor="start" x="152.63" y="-15.4" font-family="Times-12" font-size="14.00"> &#160;Declarations</text>
<polygon fill="#8dd3c7" stroke="transparent" points="242,-10 242,-30 262,-30 262,-10 242,-10"/>
<text text-anchor="start" x="265.73" y="-15.4" font-family="Times-12" font-size="14.00"> &#160;Module</text>
<polygon fill="#80b1d3" stroke="transparent" points="328,-10 328,-30 348,-30 348,-10 328,-10"/>
<text text-anchor="start" x="351.78" y="-15.4" font-family="Times-12" font-size="14.00"> &#160;Bootstrap</text>
<polygon fill="#fdb462" stroke="transparent" points="425,-10 425,-30 445,-30 445,-10 425,-10"/>
<text text-anchor="start" x="448.67" y="-15.4" font-family="Times-12" font-size="14.00"> &#160;Providers</text>
<polygon fill="#fb8072" stroke="transparent" points="521,-10 521,-30 541,-30 541,-10 521,-10"/>
<text text-anchor="start" x="544.73" y="-15.4" font-family="Times-12" font-size="14.00"> &#160;Exports</text>
<g id="clust1" class="cluster">
<title>cluster_UsersModule</title>
<polygon fill="none" stroke="black" stroke-dasharray="1,5" points="8,-70 8,-268 718,-268 718,-70 8,-70"/>
</g>
<g id="clust3" class="cluster">
<title>cluster_UsersModule_imports</title>
<polygon fill="none" stroke="black" points="584,-78 584,-130 710,-130 710,-78 584,-78"/>
</g>
<g id="clust4" class="cluster">
<title>cluster_UsersModule_exports</title>
<polygon fill="none" stroke="black" points="324,-208 324,-260 456,-260 456,-208 324,-208"/>
</g>
<g id="clust6" class="cluster">
<title>cluster_UsersModule_providers</title>
<polygon fill="none" stroke="black" points="16,-78 16,-130 576,-130 576,-78 16,-78"/>
</g>
<!-- DatabaseModule -->
<g id="node1" class="node">
<title>DatabaseModule</title>
<polygon fill="#8dd3c7" stroke="black" points="702.35,-122 699.35,-126 678.35,-126 675.35,-122 591.65,-122 591.65,-86 702.35,-86 702.35,-122"/>
<text text-anchor="middle" x="647" y="-99.8" font-family="Times,serif" font-size="14.00">DatabaseModule</text>
</g>
<!-- UsersModule -->
<g id="node2" class="node">
<title>UsersModule</title>
<polygon fill="#8dd3c7" stroke="black" points="435.92,-187 432.92,-191 411.92,-191 408.92,-187 344.08,-187 344.08,-151 435.92,-151 435.92,-187"/>
<text text-anchor="middle" x="390" y="-164.8" font-family="Times,serif" font-size="14.00">UsersModule</text>
</g>
<!-- DatabaseModule&#45;&gt;UsersModule -->
<g id="edge1" class="edge">
<title>DatabaseModule&#45;&gt;UsersModule</title>
<path fill="none" stroke="black" d="M647,-122.11C647,-141.34 647,-169 647,-169 647,-169 445.95,-169 445.95,-169"/>
<polygon fill="black" stroke="black" points="445.95,-165.5 435.95,-169 445.95,-172.5 445.95,-165.5"/>
</g>
<!-- ListUsersService  -->
<g id="node3" class="node">
<title>ListUsersService </title>
<polygon fill="#fb8072" stroke="black" points="447.63,-252 332.37,-252 332.37,-216 447.63,-216 447.63,-252"/>
<text text-anchor="middle" x="390" y="-229.8" font-family="Times,serif" font-size="14.00">ListUsersService </text>
</g>
<!-- UsersModule&#45;&gt;ListUsersService  -->
<g id="edge2" class="edge">
<title>UsersModule&#45;&gt;ListUsersService </title>
<path fill="none" stroke="black" stroke-dasharray="5,2" d="M390,-187.11C390,-187.11 390,-205.99 390,-205.99"/>
<polygon fill="black" stroke="black" points="386.5,-205.99 390,-215.99 393.5,-205.99 386.5,-205.99"/>
</g>
<!-- CreateUsersService -->
<g id="node4" class="node">
<title>CreateUsersService</title>
<ellipse fill="#fdb462" stroke="black" cx="481" cy="-104" rx="87.35" ry="18"/>
<text text-anchor="middle" x="481" y="-99.8" font-family="Times,serif" font-size="14.00">CreateUsersService</text>
</g>
<!-- CreateUsersService&#45;&gt;UsersModule -->
<g id="edge3" class="edge">
<title>CreateUsersService&#45;&gt;UsersModule</title>
<path fill="none" stroke="black" d="M414.77,-115.92C414.77,-115.92 414.77,-140.77 414.77,-140.77"/>
<polygon fill="black" stroke="black" points="411.27,-140.77 414.77,-150.77 418.27,-140.77 411.27,-140.77"/>
</g>
<!-- ListUsersService -->
<g id="node5" class="node">
<title>ListUsersService</title>
<ellipse fill="#fdb462" stroke="black" cx="299" cy="-104" rx="77" ry="18"/>
<text text-anchor="middle" x="299" y="-99.8" font-family="Times,serif" font-size="14.00">ListUsersService</text>
</g>
<!-- ListUsersService&#45;&gt;UsersModule -->
<g id="edge4" class="edge">
<title>ListUsersService&#45;&gt;UsersModule</title>
<path fill="none" stroke="black" d="M360.14,-115.03C360.14,-115.03 360.14,-140.78 360.14,-140.78"/>
<polygon fill="black" stroke="black" points="356.64,-140.78 360.14,-150.78 363.64,-140.78 356.64,-140.78"/>
</g>
<!-- UpdateUsersService -->
<g id="node6" class="node">
<title>UpdateUsersService</title>
<ellipse fill="#fdb462" stroke="black" cx="114" cy="-104" rx="89.72" ry="18"/>
<text text-anchor="middle" x="114" y="-99.8" font-family="Times,serif" font-size="14.00">UpdateUsersService</text>
</g>
<!-- UpdateUsersService&#45;&gt;UsersModule -->
<g id="edge5" class="edge">
<title>UpdateUsersService&#45;&gt;UsersModule</title>
<path fill="none" stroke="black" d="M114,-122.11C114,-141.34 114,-169 114,-169 114,-169 334.11,-169 334.11,-169"/>
<polygon fill="black" stroke="black" points="334.11,-172.5 344.11,-169 334.11,-165.5 334.11,-172.5"/>
</g>
</g>
</svg>
