<?xml version="1.0" encoding="UTF-8" standalone="no"?>
<!DOCTYPE svg PUBLIC "-//W3C//DTD SVG 1.1//EN"
 "http://www.w3.org/Graphics/SVG/1.1/DTD/svg11.dtd">
<!-- Generated by graphviz version 2.47.0 (20210316.0004)
 -->
<!-- Title: dependencies Pages: 1 -->
<svg width="1486pt" height="211pt"
 viewBox="0.00 0.00 1486.00 211.00" xmlns="http://www.w3.org/2000/svg" xmlns:xlink="http://www.w3.org/1999/xlink">
<g id="graph0" class="graph" transform="scale(1 1) rotate(0) translate(4 207)">
<title>dependencies</title>
<polygon fill="white" stroke="transparent" points="-4,4 -4,-207 1482,-207 1482,4 -4,4"/>
<text text-anchor="start" x="718.01" y="-42.4" font-family="Times-12" font-weight="bold" font-size="14.00">Legend</text>
<polygon fill="#ffffb3" stroke="transparent" points="505,-10 505,-30 525,-30 525,-10 505,-10"/>
<text text-anchor="start" x="528.63" y="-15.4" font-family="Times-12" font-size="14.00"> &#160;Declarations</text>
<polygon fill="#8dd3c7" stroke="transparent" points="618,-10 618,-30 638,-30 638,-10 618,-10"/>
<text text-anchor="start" x="641.73" y="-15.4" font-family="Times-12" font-size="14.00"> &#160;Module</text>
<polygon fill="#80b1d3" stroke="transparent" points="704,-10 704,-30 724,-30 724,-10 704,-10"/>
<text text-anchor="start" x="727.78" y="-15.4" font-family="Times-12" font-size="14.00"> &#160;Bootstrap</text>
<polygon fill="#fdb462" stroke="transparent" points="801,-10 801,-30 821,-30 821,-10 801,-10"/>
<text text-anchor="start" x="824.67" y="-15.4" font-family="Times-12" font-size="14.00"> &#160;Providers</text>
<polygon fill="#fb8072" stroke="transparent" points="897,-10 897,-30 917,-30 917,-10 897,-10"/>
<text text-anchor="start" x="920.73" y="-15.4" font-family="Times-12" font-size="14.00"> &#160;Exports</text>
<g id="clust1" class="cluster">
<title>cluster_ShortenedUrlsModule</title>
<polygon fill="none" stroke="black" stroke-dasharray="1,5" points="8,-70 8,-195 1470,-195 1470,-70 8,-70"/>
</g>
<g id="clust6" class="cluster">
<title>cluster_ShortenedUrlsModule_providers</title>
<polygon fill="none" stroke="black" points="150,-78 150,-130 1462,-130 1462,-78 150,-78"/>
</g>
<g id="clust3" class="cluster">
<title>cluster_ShortenedUrlsModule_imports</title>
<polygon fill="none" stroke="black" points="16,-78 16,-130 142,-130 142,-78 16,-78"/>
</g>
<!-- DatabaseModule -->
<g id="node1" class="node">
<title>DatabaseModule</title>
<polygon fill="#8dd3c7" stroke="black" points="134.35,-122 131.35,-126 110.35,-126 107.35,-122 23.65,-122 23.65,-86 134.35,-86 134.35,-122"/>
<text text-anchor="middle" x="79" y="-99.8" font-family="Times,serif" font-size="14.00">DatabaseModule</text>
</g>
<!-- ShortenedUrlsModule -->
<g id="node2" class="node">
<title>ShortenedUrlsModule</title>
<polygon fill="#8dd3c7" stroke="black" points="734.42,-187 731.42,-191 710.42,-191 707.42,-187 593.58,-187 593.58,-151 734.42,-151 734.42,-187"/>
<text text-anchor="middle" x="664" y="-164.8" font-family="Times,serif" font-size="14.00">ShortenedUrlsModule</text>
</g>
<!-- DatabaseModule&#45;&gt;ShortenedUrlsModule -->
<g id="edge1" class="edge">
<title>DatabaseModule&#45;&gt;ShortenedUrlsModule</title>
<path fill="none" stroke="black" d="M79,-122.28C79,-143.32 79,-175 79,-175 79,-175 583.73,-175 583.73,-175"/>
<polygon fill="black" stroke="black" points="583.73,-178.5 593.73,-175 583.73,-171.5 583.73,-178.5"/>
</g>
<!-- AddClickShortenedUrlsService -->
<g id="node3" class="node">
<title>AddClickShortenedUrlsService</title>
<ellipse fill="#fdb462" stroke="black" cx="1321" cy="-104" rx="133.15" ry="18"/>
<text text-anchor="middle" x="1321" y="-99.8" font-family="Times,serif" font-size="14.00">AddClickShortenedUrlsService</text>
</g>
<!-- AddClickShortenedUrlsService&#45;&gt;ShortenedUrlsModule -->
<g id="edge2" class="edge">
<title>AddClickShortenedUrlsService&#45;&gt;ShortenedUrlsModule</title>
<path fill="none" stroke="black" d="M1321,-122.28C1321,-143.32 1321,-175 1321,-175 1321,-175 744.31,-175 744.31,-175"/>
<polygon fill="black" stroke="black" points="744.31,-171.5 734.31,-175 744.31,-178.5 744.31,-171.5"/>
</g>
<!-- CreateShortenedUrlsService -->
<g id="node4" class="node">
<title>CreateShortenedUrlsService</title>
<ellipse fill="#fdb462" stroke="black" cx="1049" cy="-104" rx="120.94" ry="18"/>
<text text-anchor="middle" x="1049" y="-99.8" font-family="Times,serif" font-size="14.00">CreateShortenedUrlsService</text>
</g>
<!-- CreateShortenedUrlsService&#45;&gt;ShortenedUrlsModule -->
<g id="edge3" class="edge">
<title>CreateShortenedUrlsService&#45;&gt;ShortenedUrlsModule</title>
<path fill="none" stroke="black" d="M1049,-122.02C1049,-139.37 1049,-163 1049,-163 1049,-163 744.61,-163 744.61,-163"/>
<polygon fill="black" stroke="black" points="744.61,-159.5 734.61,-163 744.61,-166.5 744.61,-159.5"/>
</g>
<!-- DeleteShortenedUrlsService -->
<g id="node5" class="node">
<title>DeleteShortenedUrlsService</title>
<ellipse fill="#fdb462" stroke="black" cx="789" cy="-104" rx="120.94" ry="18"/>
<text text-anchor="middle" x="789" y="-99.8" font-family="Times,serif" font-size="14.00">DeleteShortenedUrlsService</text>
</g>
<!-- DeleteShortenedUrlsService&#45;&gt;ShortenedUrlsModule -->
<g id="edge4" class="edge">
<title>DeleteShortenedUrlsService&#45;&gt;ShortenedUrlsModule</title>
<path fill="none" stroke="black" d="M701.12,-116.53C701.12,-116.53 701.12,-140.85 701.12,-140.85"/>
<polygon fill="black" stroke="black" points="697.62,-140.85 701.12,-150.85 704.62,-140.85 697.62,-140.85"/>
</g>
<!-- ListShortenedUrlsService -->
<g id="node6" class="node">
<title>ListShortenedUrlsService</title>
<ellipse fill="#fdb462" stroke="black" cx="539" cy="-104" rx="110.59" ry="18"/>
<text text-anchor="middle" x="539" y="-99.8" font-family="Times,serif" font-size="14.00">ListShortenedUrlsService</text>
</g>
<!-- ListShortenedUrlsService&#45;&gt;ShortenedUrlsModule -->
<g id="edge5" class="edge">
<title>ListShortenedUrlsService&#45;&gt;ShortenedUrlsModule</title>
<path fill="none" stroke="black" d="M621.79,-116.23C621.79,-116.23 621.79,-140.68 621.79,-140.68"/>
<polygon fill="black" stroke="black" points="618.29,-140.68 621.79,-150.68 625.29,-140.68 618.29,-140.68"/>
</g>
<!-- UpdatetShortenedUrlsService -->
<g id="node7" class="node">
<title>UpdatetShortenedUrlsService</title>
<ellipse fill="#fdb462" stroke="black" cx="284" cy="-104" rx="126.18" ry="18"/>
<text text-anchor="middle" x="284" y="-99.8" font-family="Times,serif" font-size="14.00">UpdatetShortenedUrlsService</text>
</g>
<!-- UpdatetShortenedUrlsService&#45;&gt;ShortenedUrlsModule -->
<g id="edge6" class="edge">
<title>UpdatetShortenedUrlsService&#45;&gt;ShortenedUrlsModule</title>
<path fill="none" stroke="black" d="M284,-122.02C284,-139.37 284,-163 284,-163 284,-163 583.42,-163 583.42,-163"/>
<polygon fill="black" stroke="black" points="583.42,-166.5 593.42,-163 583.42,-159.5 583.42,-166.5"/>
</g>
</g>
</svg>
